<?xml version="1.0" standalone="no"?>
<!DOCTYPE svg PUBLIC "-//W3C//DTD SVG 20010904//EN"
 "http://www.w3.org/TR/2001/REC-SVG-20010904/DTD/svg10.dtd">
<svg version="1.0" xmlns="http://www.w3.org/2000/svg"
 width="512.000000pt" height="512.000000pt" viewBox="0 0 512.000000 512.000000"
 preserveAspectRatio="xMidYMid meet">
<metadata>
Created by potrace 1.14, written by Peter Selinger 2001-2017
</metadata>
<g transform="translate(0.000000,512.000000) scale(0.100000,-0.100000)"
fill="#000000" stroke="none">
<path d="M914 4620 c-65 -26 -39 -140 31 -140 33 0 75 42 75 75 0 30 -41 75
-67 74 -10 0 -27 -4 -39 -9z"/>
<path d="M1857 4524 c-1 -1 -22 -5 -47 -9 -235 -34 -467 -152 -646 -330 -149
-147 -257 -332 -309 -526 -32 -122 -36 -152 -40 -286 -4 -167 8 -212 57 -213
39 0 45 22 42 161 -4 244 54 445 188 642 53 79 206 231 281 281 69 45 209 116
229 116 8 0 18 4 23 9 11 9 76 27 175 46 65 13 305 14 365 1 17 -4 44 -9 60
-12 228 -47 472 -207 624 -411 54 -73 75 -89 105 -77 36 14 31 52 -17 122
-213 309 -591 497 -985 490 -56 -1 -104 -3 -105 -4z"/>
<path d="M3312 4510 c-33 -31 -33 -72 1 -107 26 -29 56 -29 91 -2 52 41 19
129 -48 129 -12 0 -32 -9 -44 -20z"/>
<path d="M4215 4363 c-22 -9 -59 -31 -82 -50 -168 -134 -132 -406 64 -495 70
-31 182 -31 244 0 92 48 149 122 166 218 23 128 -41 254 -159 316 -55 28 -174
34 -233 11z"/>
<path d="M1910 4229 c-146 -13 -275 -58 -405 -144 -175 -114 -305 -292 -366
-500 -32 -110 -33 -352 -2 -460 11 -38 22 -76 24 -84 3 -11 -14 -18 -66 -26
-131 -23 -248 -81 -343 -172 -85 -83 -128 -150 -170 -268 -31 -90 -39 -248
-16 -345 44 -189 183 -361 359 -444 108 -52 152 -58 415 -61 l245 -2 1 -245
c1 -245 1 -246 27 -289 33 -57 69 -90 140 -128 192 -103 486 -99 670 10 68 41
136 116 137 152 0 28 15 19 28 -17 17 -47 90 -117 156 -149 233 -114 565 -87
727 60 79 72 83 86 83 360 1 134 3 243 6 244 3 0 122 2 265 3 208 2 273 6 325
20 237 63 423 255 475 492 24 107 16 243 -20 348 -94 272 -354 450 -641 440
l-70 -3 0 82 c0 132 -13 196 -66 306 -60 125 -174 235 -308 299 -206 98 -474
71 -657 -65 l-31 -24 -13 38 c-18 57 -75 161 -121 222 -185 246 -479 376 -788
350z"/>
<path d="M500 3570 c-45 -45 -11 -120 53 -120 61 0 94 66 57 113 -27 34 -80
37 -110 7z"/>
<path d="M4371 1263 c-57 -48 -12 -144 60 -128 60 13 79 88 33 124 -33 26 -65
27 -93 4z"/>
<path d="M694 1157 c-124 -59 -175 -208 -113 -331 90 -182 346 -180 436 3 43
87 30 195 -33 270 -63 75 -197 102 -290 58z"/>
<path d="M1293 979 c-28 -10 -53 -48 -50 -78 1 -12 14 -33 29 -46 24 -21 32
-22 58 -13 53 18 75 72 46 110 -18 24 -57 37 -83 27z"/>
<path d="M3381 614 c-28 -35 -26 -69 4 -100 35 -35 89 -25 113 22 37 71 -68
141 -117 78z"/>
</g>
</svg>
